<?xml version="1.0" standalone="no"?>
<!DOCTYPE svg PUBLIC "-//W3C//DTD SVG 20010904//EN"
 "http://www.w3.org/TR/2001/REC-SVG-20010904/DTD/svg10.dtd">
<svg version="1.0" xmlns="http://www.w3.org/2000/svg"
 width="800.000000pt" height="800.000000pt" viewBox="0 0 800.000000 800.000000"
 preserveAspectRatio="xMidYMid meet">
<metadata>
Created by potrace 1.11, written by Peter Selinger 2001-2013
</metadata>
<g transform="translate(0.000000,800.000000) scale(0.100000,-0.100000)"
fill="#000000" stroke="none">
<path d="M3699 7986 c-2 -2 -42 -7 -89 -11 -47 -4 -94 -9 -105 -11 -11 -3 -38
-6 -60 -9 -42 -4 -103 -13 -139 -21 -11 -3 -37 -7 -56 -10 -19 -2 -73 -14
-120 -25 -47 -11 -96 -23 -109 -25 -14 -3 -28 -7 -31 -9 -4 -2 -20 -6 -36 -9
-66 -12 -393 -123 -489 -165 -11 -5 -49 -22 -85 -37 -68 -30 -310 -152 -370
-186 -481 -281 -901 -655 -1222 -1088 -252 -340 -448 -718 -585 -1130 -25 -74
-46 -142 -48 -150 -2 -8 -13 -51 -24 -96 -37 -142 -87 -399 -97 -499 -3 -39
-8 -78 -9 -87 -25 -131 -26 -681 -1 -838 2 -14 7 -52 11 -85 12 -105 14 -118
35 -230 42 -221 144 -579 205 -720 7 -16 32 -75 56 -130 56 -133 182 -378 243
-475 203 -320 365 -527 596 -759 142 -142 290 -271 435 -379 39 -28 75 -55 80
-59 107 -82 366 -235 550 -326 268 -133 639 -264 875 -311 22 -4 48 -9 145
-30 41 -8 111 -20 130 -21 11 -1 43 -6 70 -10 219 -36 827 -42 994 -10 9 1 43
6 76 10 69 8 100 12 135 19 14 3 54 10 90 16 199 34 589 151 768 230 12 6 32
14 45 19 72 30 353 171 426 214 96 56 343 217 351 228 3 4 22 19 43 33 69 47
261 210 366 311 353 340 625 714 836 1150 110 227 202 471 261 693 26 100 29
112 41 172 4 19 8 37 8 40 25 114 29 139 41 219 4 25 8 54 10 65 3 17 7 57 20
176 17 168 26 850 12 873 -5 9 -236 12 -900 12 l-892 0 -22 80 c-12 44 -31
107 -43 140 -13 33 -27 74 -32 91 -28 94 -206 414 -293 526 -239 308 -542 553
-852 691 -100 44 -139 61 -146 63 -5 1 -10 3 -13 4 -3 1 -8 3 -12 5 -5 1 -17
5 -28 9 -112 43 -324 94 -455 110 -25 3 -65 8 -90 12 -49 6 -344 7 -400 0
-110 -12 -157 -18 -170 -21 -8 -3 -33 -7 -55 -11 -76 -11 -262 -63 -356 -98
-52 -20 -100 -36 -106 -36 -7 0 -13 -4 -13 -10 0 -5 -5 -10 -11 -10 -32 0
-254 -122 -374 -205 -140 -96 -341 -277 -434 -390 -156 -188 -269 -373 -372
-610 -51 -116 -108 -314 -134 -465 -3 -19 -8 -45 -10 -57 -19 -85 -26 -434
-12 -563 13 -118 36 -246 63 -340 8 -30 22 -79 30 -108 21 -80 99 -265 156
-372 145 -275 364 -537 608 -727 283 -220 651 -382 1005 -442 271 -47 589 -40
839 16 37 8 73 16 80 17 46 10 226 66 271 85 205 88 383 183 491 265 23 17 54
40 68 50 109 79 331 303 423 426 168 226 284 455 363 720 18 58 33 110 34 115
2 9 700 17 717 9 8 -4 -21 -146 -51 -259 -148 -546 -464 -1056 -885 -1431
-106 -94 -118 -103 -235 -190 -377 -279 -899 -487 -1350 -539 -25 -3 -66 -7
-92 -11 -156 -18 -439 -18 -599 1 -35 5 -75 9 -89 10 -38 4 -124 17 -130 20
-3 2 -24 6 -48 10 -132 19 -413 106 -591 182 -110 47 -298 142 -343 174 -14
11 -29 19 -32 19 -13 0 -221 147 -321 227 -157 126 -369 341 -475 482 -14 18
-35 45 -46 59 -42 53 -173 259 -221 347 -132 244 -264 605 -299 815 -2 14 -8
45 -14 70 -5 25 -12 70 -16 100 -3 30 -8 64 -10 74 -24 128 -23 617 1 719 3
12 7 40 9 62 16 163 93 453 178 670 85 216 167 365 353 643 95 142 360 423
531 562 108 88 307 223 419 285 69 38 185 98 195 100 3 1 31 13 63 28 142 65
387 145 542 178 33 7 65 14 70 15 13 4 56 11 175 29 229 34 568 35 800 1 100
-14 119 -17 160 -26 25 -5 56 -12 70 -14 52 -9 198 -49 309 -85 183 -60 336
-129 546 -246 51 -28 216 -135 225 -145 3 -3 21 -17 40 -30 117 -80 302 -246
440 -395 151 -164 313 -391 414 -580 21 -38 39 -71 41 -73 1 -2 144 69 316
157 173 87 373 189 444 225 72 36 136 70 144 75 11 7 1 33 -54 133 -100 180
-266 431 -367 552 -166 200 -312 354 -453 481 -43 39 -83 75 -89 80 -107 97
-404 307 -576 408 -110 64 -326 173 -420 212 -36 14 -83 35 -106 45 -133 61
-587 192 -744 215 -44 7 -59 9 -110 19 -29 5 -127 19 -235 32 -58 7 -679 17
-686 10z m430 -2772 c36 -4 68 -8 71 -9 3 -1 25 -5 50 -9 183 -34 430 -164
575 -303 309 -296 438 -685 370 -1113 -12 -72 -76 -258 -115 -335 -181 -349
-519 -592 -905 -652 -61 -10 -315 -10 -370 -1 -391 66 -727 313 -903 663 -39
78 -84 200 -96 260 -4 17 -9 41 -12 55 -12 58 -14 81 -18 195 -8 271 57 497
213 729 42 64 178 211 242 262 108 88 285 179 420 218 90 26 124 32 224 41 32
3 60 7 61 8 5 4 130 -1 193 -9z"/>
</g>
</svg>
